<mxfile host="app.diagrams.net" modified="2024-03-05T16:13:19.610Z" agent="Mozilla/5.0 (Macintosh; Intel Mac OS X 10_15_7) AppleWebKit/605.1.15 (KHTML, like Gecko) Version/17.1 Safari/605.1.15" version="24.0.1" etag="RN_oXQw6HEQyEf522lNZ" type="github">
  <diagram name="Seite-1" id="sHBl33qTSVVCFgBgNcqV">
    <mxGraphModel>
      <root>
        <mxCell id="0" />
        <mxCell id="1" parent="0" />
      </root>
    </mxGraphModel>
  </diagram>
</mxfile>
